<svg xmlns="http://www.w3.org/2000/svg" width="1280" height="720" viewBox="0 0 1280 720" font-family="Segoe UI, sans-serif"><rect width="1280" height="720" fill="#F7F6F3"/><rect width="1280" height="60" fill="#FFFFFF"/><line x1="0" y1="60" x2="1280" y2="60" stroke="#E3E1DA"/><rect x="30" y="18" width="6" height="24" rx="3" fill="#1D9E75"/><text x="46" y="34" font-size="18" font-weight="600" fill="#2C2C2A">Gedragstags</text><text x="46" y="50" font-size="11" fill="#6F6E68">Slaapanalyse-dashboard · Garmin-gedragstags · mockup: 1 echte dag (9 jun), overige 20 dagen gesimuleerd</text><rect x="1030" y="15" width="220" height="30" rx="6" fill="#F7F6F3" stroke="#E3E1DA"/><text x="1042" y="34" font-size="11" fill="#6F6E68">Periode</text><text x="1220" y="34" font-size="11" fill="#2C2C2A" text-anchor="end">laatste 21 dagen</text><rect x="30" y="80" width="290" height="100" rx="8" fill="#FFFFFF" stroke="#E3E1DA"/><rect x="30" y="80" width="4" height="100" fill="#EF9F27"/><text x="50" y="108" font-size="12" fill="#6F6E68">KOFFIE VANDAAG</text><text x="50" y="142" font-size="30" font-weight="600" fill="#2C2C2A">4<tspan font-size="14" fill="#6F6E68"> kopjes</tspan></text><text x="50" y="164" font-size="11" fill="#6F6E68">weekgem. 3,1 · trend ↗</text><rect x="340" y="80" width="290" height="100" rx="8" fill="#FFFFFF" stroke="#E3E1DA"/><rect x="340" y="80" width="4" height="100" fill="#D4537E"/><text x="360" y="108" font-size="12" fill="#6F6E68">ALCOHOL DEZE WEEK</text><text x="360" y="142" font-size="30" font-weight="600" fill="#2C2C2A">3<tspan font-size="14" fill="#6F6E68"> eenheden</tspan></text><text x="360" y="164" font-size="11" fill="#6F6E68">2 van 7 dagen · vooral weekend</text><rect x="650" y="80" width="290" height="100" rx="8" fill="#FFFFFF" stroke="#E3E1DA"/><rect x="650" y="80" width="4" height="100" fill="#534AB7"/><text x="670" y="108" font-size="12" fill="#6F6E68">SCHERMEN VOOR BED</text><text x="670" y="142" font-size="30" font-weight="600" fill="#2C2C2A">71<tspan font-size="14" fill="#6F6E68"> % dagen</tspan></text><text x="670" y="164" font-size="11" fill="#6F6E68">15 van 21 dagen — hoogste factor</text><rect x="960" y="80" width="290" height="100" rx="8" fill="#FFFFFF" stroke="#E3E1DA"/><rect x="960" y="80" width="4" height="100" fill="#1D9E75"/><text x="980" y="108" font-size="12" fill="#6F6E68">LOGGING-DISCIPLINE</text><text x="980" y="142" font-size="30" font-weight="600" fill="#2C2C2A">100<tspan font-size="14" fill="#6F6E68"> %</tspan></text><text x="980" y="164" font-size="11" fill="#6F6E68">21/21 dagen volledig · streak 21</text><rect x="30" y="200" width="820" height="280" rx="8" fill="#FFFFFF" stroke="#E3E1DA"/><text x="50" y="230" font-size="15" font-weight="600" fill="#2C2C2A">Gedrag per dag (heatmap)</text><text x="50" y="248" font-size="11" fill="#6F6E68">gevuld = YES · laatste kolom = 9 jun (echte data) · weekenddagen gearceerd in kop</text><text x="215" y="260" font-size="9" fill="#6F6E68" text-anchor="middle">wo 20/5</text><text x="303" y="260" font-size="9" fill="#2C2C2A" text-anchor="middle">za 23/5</text><text x="392" y="260" font-size="9" fill="#6F6E68" text-anchor="middle">di 26/5</text><text x="480" y="260" font-size="9" fill="#6F6E68" text-anchor="middle">vr 29/5</text><text x="569" y="260" font-size="9" fill="#6F6E68" text-anchor="middle">ma 1/6</text><text x="658" y="260" font-size="9" fill="#6F6E68" text-anchor="middle">do 4/6</text><text x="746" y="260" font-size="9" fill="#2C2C2A" text-anchor="middle">zo 7/6</text><text x="805" y="260" font-size="9" fill="#6F6E68" text-anchor="middle">di 9/6</text><text x="190" y="287" font-size="11" fill="#2C2C2A" text-anchor="end">Alcohol</text><rect x="201.0" y="272" width="27.5" height="22" rx="3" fill="#F7F6F3"/><rect x="230.5" y="272" width="27.5" height="22" rx="3" fill="#F7F6F3"/><rect x="260.0" y="272" width="27.5" height="22" rx="3" fill="#F7F6F3"/><rect x="289.6" y="272" width="27.5" height="22" rx="3" fill="#F7F6F3"/><rect x="319.1" y="272" width="27.5" height="22" rx="3" fill="#F7F6F3"/><rect x="348.6" y="272" width="27.5" height="22" rx="3" fill="#D4537E" opacity="0.55"/><rect x="378.1" y="272" width="27.5" height="22" rx="3" fill="#D4537E" opacity="0.55"/><rect x="407.7" y="272" width="27.5" height="22" rx="3" fill="#F7F6F3"/><rect x="437.2" y="272" width="27.5" height="22" rx="3" fill="#F7F6F3"/><rect x="466.7" y="272" width="27.5" height="22" rx="3" fill="#F7F6F3"/><rect x="496.2" y="272" width="27.5" height="22" rx="3" fill="#D4537E" opacity="0.55"/><rect x="525.8" y="272" width="27.5" height="22" rx="3" fill="#D4537E" opacity="0.55"/><rect x="555.3" y="272" width="27.5" height="22" rx="3" fill="#D4537E" opacity="0.55"/><rect x="584.8" y="272" width="27.5" height="22" rx="3" fill="#F7F6F3"/><rect x="614.3" y="272" width="27.5" height="22" rx="3" fill="#F7F6F3"/><rect x="643.9" y="272" width="27.5" height="22" rx="3" fill="#D4537E" opacity="0.55"/><rect x="673.4" y="272" width="27.5" height="22" rx="3" fill="#F7F6F3"/><rect x="702.9" y="272" width="27.5" height="22" rx="3" fill="#F7F6F3"/><rect x="732.4" y="272" width="27.5" height="22" rx="3" fill="#F7F6F3"/><rect x="762.0" y="272" width="27.5" height="22" rx="3" fill="#D4537E" opacity="0.55"/><rect x="791.5" y="272" width="27.5" height="22" rx="3" fill="#D4537E" opacity="1"/><text x="190" y="313" font-size="11" fill="#2C2C2A" text-anchor="end">Koffie ≥3</text><rect x="201.0" y="298" width="27.5" height="22" rx="3" fill="#EF9F27" opacity="0.55"/><rect x="230.5" y="298" width="27.5" height="22" rx="3" fill="#EF9F27" opacity="0.55"/><rect x="260.0" y="298" width="27.5" height="22" rx="3" fill="#EF9F27" opacity="0.55"/><rect x="289.6" y="298" width="27.5" height="22" rx="3" fill="#EF9F27" opacity="0.55"/><rect x="319.1" y="298" width="27.5" height="22" rx="3" fill="#EF9F27" opacity="0.55"/><rect x="348.6" y="298" width="27.5" height="22" rx="3" fill="#EF9F27" opacity="0.55"/><rect x="378.1" y="298" width="27.5" height="22" rx="3" fill="#F7F6F3"/><rect x="407.7" y="298" width="27.5" height="22" rx="3" fill="#EF9F27" opacity="0.55"/><rect x="437.2" y="298" width="27.5" height="22" rx="3" fill="#F7F6F3"/><rect x="466.7" y="298" width="27.5" height="22" rx="3" fill="#EF9F27" opacity="0.55"/><rect x="496.2" y="298" width="27.5" height="22" rx="3" fill="#F7F6F3"/><rect x="525.8" y="298" width="27.5" height="22" rx="3" fill="#EF9F27" opacity="0.55"/><rect x="555.3" y="298" width="27.5" height="22" rx="3" fill="#F7F6F3"/><rect x="584.8" y="298" width="27.5" height="22" rx="3" fill="#F7F6F3"/><rect x="614.3" y="298" width="27.5" height="22" rx="3" fill="#EF9F27" opacity="0.55"/><rect x="643.9" y="298" width="27.5" height="22" rx="3" fill="#F7F6F3"/><rect x="673.4" y="298" width="27.5" height="22" rx="3" fill="#F7F6F3"/><rect x="702.9" y="298" width="27.5" height="22" rx="3" fill="#F7F6F3"/><rect x="732.4" y="298" width="27.5" height="22" rx="3" fill="#F7F6F3"/><rect x="762.0" y="298" width="27.5" height="22" rx="3" fill="#F7F6F3"/><rect x="791.5" y="298" width="27.5" height="22" rx="3" fill="#EF9F27" opacity="1"/><text x="190" y="339" font-size="11" fill="#2C2C2A" text-anchor="end">Laat gegeten</text><rect x="201.0" y="324" width="27.5" height="22" rx="3" fill="#F7F6F3"/><rect x="230.5" y="324" width="27.5" height="22" rx="3" fill="#D85A30" opacity="0.55"/><rect x="260.0" y="324" width="27.5" height="22" rx="3" fill="#F7F6F3"/><rect x="289.6" y="324" width="27.5" height="22" rx="3" fill="#F7F6F3"/><rect x="319.1" y="324" width="27.5" height="22" rx="3" fill="#F7F6F3"/><rect x="348.6" y="324" width="27.5" height="22" rx="3" fill="#D85A30" opacity="0.55"/><rect x="378.1" y="324" width="27.5" height="22" rx="3" fill="#F7F6F3"/><rect x="407.7" y="324" width="27.5" height="22" rx="3" fill="#F7F6F3"/><rect x="437.2" y="324" width="27.5" height="22" rx="3" fill="#D85A30" opacity="0.55"/><rect x="466.7" y="324" width="27.5" height="22" rx="3" fill="#F7F6F3"/><rect x="496.2" y="324" width="27.5" height="22" rx="3" fill="#F7F6F3"/><rect x="525.8" y="324" width="27.5" height="22" rx="3" fill="#D85A30" opacity="0.55"/><rect x="555.3" y="324" width="27.5" height="22" rx="3" fill="#F7F6F3"/><rect x="584.8" y="324" width="27.5" height="22" rx="3" fill="#D85A30" opacity="0.55"/><rect x="614.3" y="324" width="27.5" height="22" rx="3" fill="#D85A30" opacity="0.55"/><rect x="643.9" y="324" width="27.5" height="22" rx="3" fill="#F7F6F3"/><rect x="673.4" y="324" width="27.5" height="22" rx="3" fill="#F7F6F3"/><rect x="702.9" y="324" width="27.5" height="22" rx="3" fill="#D85A30" opacity="0.55"/><rect x="732.4" y="324" width="27.5" height="22" rx="3" fill="#D85A30" opacity="0.55"/><rect x="762.0" y="324" width="27.5" height="22" rx="3" fill="#D85A30" opacity="0.55"/><rect x="791.5" y="324" width="27.5" height="22" rx="3" fill="#D85A30" opacity="1"/><text x="190" y="365" font-size="11" fill="#2C2C2A" text-anchor="end">Schermen voor bed</text><rect x="201.0" y="350" width="27.5" height="22" rx="3" fill="#534AB7" opacity="0.55"/><rect x="230.5" y="350" width="27.5" height="22" rx="3" fill="#534AB7" opacity="0.55"/><rect x="260.0" y="350" width="27.5" height="22" rx="3" fill="#534AB7" opacity="0.55"/><rect x="289.6" y="350" width="27.5" height="22" rx="3" fill="#534AB7" opacity="0.55"/><rect x="319.1" y="350" width="27.5" height="22" rx="3" fill="#534AB7" opacity="0.55"/><rect x="348.6" y="350" width="27.5" height="22" rx="3" fill="#F7F6F3"/><rect x="378.1" y="350" width="27.5" height="22" rx="3" fill="#534AB7" opacity="0.55"/><rect x="407.7" y="350" width="27.5" height="22" rx="3" fill="#534AB7" opacity="0.55"/><rect x="437.2" y="350" width="27.5" height="22" rx="3" fill="#534AB7" opacity="0.55"/><rect x="466.7" y="350" width="27.5" height="22" rx="3" fill="#534AB7" opacity="0.55"/><rect x="496.2" y="350" width="27.5" height="22" rx="3" fill="#534AB7" opacity="0.55"/><rect x="525.8" y="350" width="27.5" height="22" rx="3" fill="#534AB7" opacity="0.55"/><rect x="555.3" y="350" width="27.5" height="22" rx="3" fill="#F7F6F3"/><rect x="584.8" y="350" width="27.5" height="22" rx="3" fill="#534AB7" opacity="0.55"/><rect x="614.3" y="350" width="27.5" height="22" rx="3" fill="#534AB7" opacity="0.55"/><rect x="643.9" y="350" width="27.5" height="22" rx="3" fill="#534AB7" opacity="0.55"/><rect x="673.4" y="350" width="27.5" height="22" rx="3" fill="#534AB7" opacity="0.55"/><rect x="702.9" y="350" width="27.5" height="22" rx="3" fill="#F7F6F3"/><rect x="732.4" y="350" width="27.5" height="22" rx="3" fill="#F7F6F3"/><rect x="762.0" y="350" width="27.5" height="22" rx="3" fill="#534AB7" opacity="0.55"/><rect x="791.5" y="350" width="27.5" height="22" rx="3" fill="#534AB7" opacity="1"/><text x="190" y="391" font-size="11" fill="#2C2C2A" text-anchor="end">Beweging</text><rect x="201.0" y="376" width="27.5" height="22" rx="3" fill="#1D9E75" opacity="0.55"/><rect x="230.5" y="376" width="27.5" height="22" rx="3" fill="#1D9E75" opacity="0.55"/><rect x="260.0" y="376" width="27.5" height="22" rx="3" fill="#F7F6F3"/><rect x="289.6" y="376" width="27.5" height="22" rx="3" fill="#F7F6F3"/><rect x="319.1" y="376" width="27.5" height="22" rx="3" fill="#1D9E75" opacity="0.55"/><rect x="348.6" y="376" width="27.5" height="22" rx="3" fill="#F7F6F3"/><rect x="378.1" y="376" width="27.5" height="22" rx="3" fill="#1D9E75" opacity="0.55"/><rect x="407.7" y="376" width="27.5" height="22" rx="3" fill="#1D9E75" opacity="0.55"/><rect x="437.2" y="376" width="27.5" height="22" rx="3" fill="#F7F6F3"/><rect x="466.7" y="376" width="27.5" height="22" rx="3" fill="#1D9E75" opacity="0.55"/><rect x="496.2" y="376" width="27.5" height="22" rx="3" fill="#1D9E75" opacity="0.55"/><rect x="525.8" y="376" width="27.5" height="22" rx="3" fill="#1D9E75" opacity="0.55"/><rect x="555.3" y="376" width="27.5" height="22" rx="3" fill="#1D9E75" opacity="0.55"/><rect x="584.8" y="376" width="27.5" height="22" rx="3" fill="#1D9E75" opacity="0.55"/><rect x="614.3" y="376" width="27.5" height="22" rx="3" fill="#1D9E75" opacity="0.55"/><rect x="643.9" y="376" width="27.5" height="22" rx="3" fill="#F7F6F3"/><rect x="673.4" y="376" width="27.5" height="22" rx="3" fill="#1D9E75" opacity="0.55"/><rect x="702.9" y="376" width="27.5" height="22" rx="3" fill="#1D9E75" opacity="0.55"/><rect x="732.4" y="376" width="27.5" height="22" rx="3" fill="#F7F6F3"/><rect x="762.0" y="376" width="27.5" height="22" rx="3" fill="#1D9E75" opacity="0.55"/><rect x="791.5" y="376" width="27.5" height="22" rx="3" fill="#1D9E75" opacity="1"/><text x="190" y="417" font-size="11" fill="#2C2C2A" text-anchor="end">Zonlicht</text><rect x="201.0" y="402" width="27.5" height="22" rx="3" fill="#F7F6F3"/><rect x="230.5" y="402" width="27.5" height="22" rx="3" fill="#378ADD" opacity="0.55"/><rect x="260.0" y="402" width="27.5" height="22" rx="3" fill="#378ADD" opacity="0.55"/><rect x="289.6" y="402" width="27.5" height="22" rx="3" fill="#F7F6F3"/><rect x="319.1" y="402" width="27.5" height="22" rx="3" fill="#F7F6F3"/><rect x="348.6" y="402" width="27.5" height="22" rx="3" fill="#378ADD" opacity="0.55"/><rect x="378.1" y="402" width="27.5" height="22" rx="3" fill="#378ADD" opacity="0.55"/><rect x="407.7" y="402" width="27.5" height="22" rx="3" fill="#F7F6F3"/><rect x="437.2" y="402" width="27.5" height="22" rx="3" fill="#F7F6F3"/><rect x="466.7" y="402" width="27.5" height="22" rx="3" fill="#378ADD" opacity="0.55"/><rect x="496.2" y="402" width="27.5" height="22" rx="3" fill="#F7F6F3"/><rect x="525.8" y="402" width="27.5" height="22" rx="3" fill="#F7F6F3"/><rect x="555.3" y="402" width="27.5" height="22" rx="3" fill="#378ADD" opacity="0.55"/><rect x="584.8" y="402" width="27.5" height="22" rx="3" fill="#378ADD" opacity="0.55"/><rect x="614.3" y="402" width="27.5" height="22" rx="3" fill="#378ADD" opacity="0.55"/><rect x="643.9" y="402" width="27.5" height="22" rx="3" fill="#378ADD" opacity="0.55"/><rect x="673.4" y="402" width="27.5" height="22" rx="3" fill="#F7F6F3"/><rect x="702.9" y="402" width="27.5" height="22" rx="3" fill="#378ADD" opacity="0.55"/><rect x="732.4" y="402" width="27.5" height="22" rx="3" fill="#F7F6F3"/><rect x="762.0" y="402" width="27.5" height="22" rx="3" fill="#378ADD" opacity="0.55"/><rect x="791.5" y="402" width="27.5" height="22" rx="3" fill="#378ADD" opacity="1"/><text x="190" y="443" font-size="11" fill="#2C2C2A" text-anchor="end">Lezen in bed</text><rect x="201.0" y="428" width="27.5" height="22" rx="3" fill="#F7F6F3"/><rect x="230.5" y="428" width="27.5" height="22" rx="3" fill="#C9C7BE" opacity="0.55"/><rect x="260.0" y="428" width="27.5" height="22" rx="3" fill="#C9C7BE" opacity="0.55"/><rect x="289.6" y="428" width="27.5" height="22" rx="3" fill="#F7F6F3"/><rect x="319.1" y="428" width="27.5" height="22" rx="3" fill="#C9C7BE" opacity="0.55"/><rect x="348.6" y="428" width="27.5" height="22" rx="3" fill="#C9C7BE" opacity="0.55"/><rect x="378.1" y="428" width="27.5" height="22" rx="3" fill="#C9C7BE" opacity="0.55"/><rect x="407.7" y="428" width="27.5" height="22" rx="3" fill="#F7F6F3"/><rect x="437.2" y="428" width="27.5" height="22" rx="3" fill="#F7F6F3"/><rect x="466.7" y="428" width="27.5" height="22" rx="3" fill="#C9C7BE" opacity="0.55"/><rect x="496.2" y="428" width="27.5" height="22" rx="3" fill="#F7F6F3"/><rect x="525.8" y="428" width="27.5" height="22" rx="3" fill="#C9C7BE" opacity="0.55"/><rect x="555.3" y="428" width="27.5" height="22" rx="3" fill="#C9C7BE" opacity="0.55"/><rect x="584.8" y="428" width="27.5" height="22" rx="3" fill="#C9C7BE" opacity="0.55"/><rect x="614.3" y="428" width="27.5" height="22" rx="3" fill="#C9C7BE" opacity="0.55"/><rect x="643.9" y="428" width="27.5" height="22" rx="3" fill="#C9C7BE" opacity="0.55"/><rect x="673.4" y="428" width="27.5" height="22" rx="3" fill="#C9C7BE" opacity="0.55"/><rect x="702.9" y="428" width="27.5" height="22" rx="3" fill="#C9C7BE" opacity="0.55"/><rect x="732.4" y="428" width="27.5" height="22" rx="3" fill="#F7F6F3"/><rect x="762.0" y="428" width="27.5" height="22" rx="3" fill="#C9C7BE" opacity="0.55"/><rect x="791.5" y="428" width="27.5" height="22" rx="3" fill="#C9C7BE" opacity="1"/><rect x="790.5" y="266" width="29.5" height="190" fill="none" stroke="#1D9E75" stroke-width="2" rx="4"/><rect x="870" y="200" width="380" height="280" rx="8" fill="#FFFFFF" stroke="#E3E1DA"/><text x="890" y="230" font-size="15" font-weight="600" fill="#2C2C2A">Hoe vaak doe ik dit?</text><text x="890" y="248" font-size="11" fill="#6F6E68">% van 21 dagen met YES</text><text x="890" y="281" font-size="11" fill="#2C2C2A">Schermen voor bed</text><rect x="1030" y="270" width="170" height="14" rx="3" fill="#F7F6F3"/><rect x="1030" y="270" width="121" height="14" rx="3" fill="#534AB7" opacity="0.8"/><text x="1210" y="281" font-size="11" font-weight="600" fill="#2C2C2A" text-anchor="start"> 71%</text><text x="890" y="309" font-size="11" fill="#2C2C2A">Koffie ≥3 kopjes</text><rect x="1030" y="298" width="170" height="14" rx="3" fill="#F7F6F3"/><rect x="1030" y="298" width="88" height="14" rx="3" fill="#EF9F27" opacity="0.8"/><text x="1210" y="309" font-size="11" font-weight="600" fill="#2C2C2A" text-anchor="start"> 52%</text><text x="890" y="337" font-size="11" fill="#2C2C2A">Beweging</text><rect x="1030" y="326" width="170" height="14" rx="3" fill="#F7F6F3"/><rect x="1030" y="326" width="88" height="14" rx="3" fill="#1D9E75" opacity="0.8"/><text x="1210" y="337" font-size="11" font-weight="600" fill="#2C2C2A" text-anchor="start"> 52%</text><text x="890" y="365" font-size="11" fill="#2C2C2A">Zonlicht</text><rect x="1030" y="354" width="170" height="14" rx="3" fill="#F7F6F3"/><rect x="1030" y="354" width="88" height="14" rx="3" fill="#378ADD" opacity="0.8"/><text x="1210" y="365" font-size="11" font-weight="600" fill="#2C2C2A" text-anchor="start"> 52%</text><text x="890" y="393" font-size="11" fill="#2C2C2A">Lezen in bed</text><rect x="1030" y="382" width="170" height="14" rx="3" fill="#F7F6F3"/><rect x="1030" y="382" width="73" height="14" rx="3" fill="#C9C7BE" opacity="0.8"/><text x="1210" y="393" font-size="11" font-weight="600" fill="#2C2C2A" text-anchor="start"> 43%</text><text x="890" y="421" font-size="11" fill="#2C2C2A">Laat gegeten</text><rect x="1030" y="410" width="170" height="14" rx="3" fill="#F7F6F3"/><rect x="1030" y="410" width="56" height="14" rx="3" fill="#D85A30" opacity="0.8"/><text x="1210" y="421" font-size="11" font-weight="600" fill="#2C2C2A" text-anchor="start"> 33%</text><text x="890" y="449" font-size="11" fill="#2C2C2A">Alcohol</text><rect x="1030" y="438" width="170" height="14" rx="3" fill="#F7F6F3"/><rect x="1030" y="438" width="49" height="14" rx="3" fill="#D4537E" opacity="0.8"/><text x="1210" y="449" font-size="11" font-weight="600" fill="#2C2C2A" text-anchor="start"> 29%</text><rect x="30" y="500" width="600" height="190" rx="8" fill="#FFFFFF" stroke="#E3E1DA"/><text x="50" y="530" font-size="15" font-weight="600" fill="#2C2C2A">Dosis per dag: koffie en alcohol</text><text x="50" y="548" font-size="11" fill="#6F6E68">kopjes (amber) en eenheden alcohol (roze) · stippellijn = weekgemiddelde koffie</text><rect x="70.0" y="604.0" width="9.4" height="57.0" fill="#EF9F27"/><rect x="80.4" y="661.0" width="9.4" height="0.0" fill="#D4537E"/><rect x="94.8" y="623.0" width="9.4" height="38.0" fill="#EF9F27"/><rect x="105.2" y="661.0" width="9.4" height="0.0" fill="#D4537E"/><rect x="119.5" y="585.0" width="9.4" height="76.0" fill="#EF9F27"/><rect x="129.9" y="642.0" width="9.4" height="19.0" fill="#D4537E"/><rect x="144.3" y="604.0" width="9.4" height="57.0" fill="#EF9F27"/><rect x="154.7" y="661.0" width="9.4" height="0.0" fill="#D4537E"/><rect x="169.0" y="623.0" width="9.4" height="38.0" fill="#EF9F27"/><rect x="179.5" y="623.0" width="9.4" height="38.0" fill="#D4537E"/><rect x="193.8" y="642.0" width="9.4" height="19.0" fill="#EF9F27"/><rect x="204.2" y="604.0" width="9.4" height="57.0" fill="#D4537E"/><rect x="218.6" y="623.0" width="9.4" height="38.0" fill="#EF9F27"/><rect x="229.0" y="642.0" width="9.4" height="19.0" fill="#D4537E"/><rect x="243.3" y="604.0" width="9.4" height="57.0" fill="#EF9F27"/><rect x="253.7" y="661.0" width="9.4" height="0.0" fill="#D4537E"/><rect x="268.1" y="585.0" width="9.4" height="76.0" fill="#EF9F27"/><rect x="278.5" y="661.0" width="9.4" height="0.0" fill="#D4537E"/><rect x="292.9" y="604.0" width="9.4" height="57.0" fill="#EF9F27"/><rect x="303.3" y="661.0" width="9.4" height="0.0" fill="#D4537E"/><rect x="317.6" y="623.0" width="9.4" height="38.0" fill="#EF9F27"/><rect x="328.0" y="661.0" width="9.4" height="0.0" fill="#D4537E"/><rect x="342.4" y="604.0" width="9.4" height="57.0" fill="#EF9F27"/><rect x="352.8" y="623.0" width="9.4" height="38.0" fill="#D4537E"/><rect x="367.1" y="642.0" width="9.4" height="19.0" fill="#EF9F27"/><rect x="377.6" y="623.0" width="9.4" height="38.0" fill="#D4537E"/><rect x="391.9" y="623.0" width="9.4" height="38.0" fill="#EF9F27"/><rect x="402.3" y="661.0" width="9.4" height="0.0" fill="#D4537E"/><rect x="416.7" y="604.0" width="9.4" height="57.0" fill="#EF9F27"/><rect x="427.1" y="661.0" width="9.4" height="0.0" fill="#D4537E"/><rect x="441.4" y="585.0" width="9.4" height="76.0" fill="#EF9F27"/><rect x="451.8" y="642.0" width="9.4" height="19.0" fill="#D4537E"/><rect x="466.2" y="604.0" width="9.4" height="57.0" fill="#EF9F27"/><rect x="476.6" y="661.0" width="9.4" height="0.0" fill="#D4537E"/><rect x="491.0" y="623.0" width="9.4" height="38.0" fill="#EF9F27"/><rect x="501.4" y="661.0" width="9.4" height="0.0" fill="#D4537E"/><rect x="515.7" y="623.0" width="9.4" height="38.0" fill="#EF9F27"/><rect x="526.1" y="623.0" width="9.4" height="38.0" fill="#D4537E"/><rect x="540.5" y="604.0" width="9.4" height="57.0" fill="#EF9F27"/><rect x="550.9" y="661.0" width="9.4" height="0.0" fill="#D4537E"/><rect x="565.2" y="585.0" width="9.4" height="76.0" fill="#EF9F27"/><rect x="575.6" y="642.0" width="9.4" height="19.0" fill="#D4537E"/><polyline points="79.4,604.0 104.2,613.5 128.9,604.0 153.7,604.0 178.5,607.8 203.2,613.5 228.0,614.9 252.7,614.9 277.5,609.4 302.3,612.1 327.0,614.9 351.8,612.1 376.6,612.1 401.3,612.1 426.1,612.1 450.8,612.1 475.6,612.1 500.4,612.1 525.1,614.9 549.9,609.4 574.6,604.0" fill="none" stroke="#854F0B" stroke-width="1.5" stroke-dasharray="5 3"/><text x="62" y="664" font-size="10" fill="#6F6E68" text-anchor="end">0</text><text x="62" y="626" font-size="10" fill="#6F6E68" text-anchor="end">2</text><text x="62" y="588" font-size="10" fill="#6F6E68" text-anchor="end">4</text><rect x="650" y="500" width="600" height="190" rx="8" fill="#FFFFFF" stroke="#E3E1DA"/><text x="670" y="530" font-size="15" font-weight="600" fill="#2C2C2A">Risico-stapeling per dag</text><text x="670" y="548" font-size="11" fill="#6F6E68">aantal ongunstige tags (alcohol, laat eten, schermen, koffie ≥3) · ≥3 = aandachtsdag</text><rect x="690.0" y="613.5" width="14.9" height="47.5" fill="#C9C7BE"/><rect x="714.8" y="589.8" width="14.9" height="71.2" fill="#D85A30"/><rect x="739.5" y="613.5" width="14.9" height="47.5" fill="#C9C7BE"/><rect x="764.3" y="613.5" width="14.9" height="47.5" fill="#C9C7BE"/><rect x="789.0" y="613.5" width="14.9" height="47.5" fill="#C9C7BE"/><rect x="813.8" y="589.8" width="14.9" height="71.2" fill="#D85A30"/><rect x="838.6" y="613.5" width="14.9" height="47.5" fill="#C9C7BE"/><rect x="863.3" y="613.5" width="14.9" height="47.5" fill="#C9C7BE"/><rect x="888.1" y="613.5" width="14.9" height="47.5" fill="#C9C7BE"/><rect x="912.9" y="613.5" width="14.9" height="47.5" fill="#C9C7BE"/><rect x="937.6" y="613.5" width="14.9" height="47.5" fill="#C9C7BE"/><rect x="962.4" y="566.0" width="14.9" height="95.0" fill="#D85A30"/><rect x="987.1" y="637.2" width="14.9" height="23.8" fill="#C9C7BE"/><rect x="1011.9" y="613.5" width="14.9" height="47.5" fill="#C9C7BE"/><rect x="1036.7" y="589.8" width="14.9" height="71.2" fill="#D85A30"/><rect x="1061.4" y="613.5" width="14.9" height="47.5" fill="#C9C7BE"/><rect x="1086.2" y="637.2" width="14.9" height="23.8" fill="#C9C7BE"/><rect x="1111.0" y="637.2" width="14.9" height="23.8" fill="#C9C7BE"/><rect x="1135.7" y="637.2" width="14.9" height="23.8" fill="#C9C7BE"/><rect x="1160.5" y="589.8" width="14.9" height="71.2" fill="#D85A30"/><rect x="1185.2" y="566.0" width="14.9" height="95.0" fill="#D85A30"/><line x1="690" y1="590" x2="1210" y2="590" stroke="#D85A30" stroke-width="1" stroke-dasharray="3 3"/><text x="682" y="664" font-size="10" fill="#6F6E68" text-anchor="end">0</text><text x="682" y="616" font-size="10" fill="#6F6E68" text-anchor="end">2</text><text x="682" y="569" font-size="10" fill="#6F6E68" text-anchor="end">4</text></svg>